<?xml version="1.0" encoding="utf-8"?>
<!-- Generator: Adobe Illustrator 23.0.3, SVG Export Plug-In . SVG Version: 6.00 Build 0)  -->
<svg version="1.1" id="Layer_1" xmlns="http://www.w3.org/2000/svg" xmlns:xlink="http://www.w3.org/1999/xlink" x="0px" y="0px"
	 viewBox="0 0 512 512" style="enable-background:new 0 0 512 512;" xml:space="preserve">
<style type="text/css">
	.st0{fill:#CCDCE5;}
	.st1{fill:#ABBAC2;}
	.st2{fill:#3890CE;}
	.st3{fill:#FFC119;}
	.st4{fill:#FAAC2B;}
	.st5{fill:#FCEA95;}
	.st6{fill:#3188C8;}
	.st7{fill:#88BF40;}
	.st8{fill:#D2E288;}
	.st9{fill:#EF5249;}
</style>
<path class="st0" d="M290.8,338.8h34.8l0,0v95.7c0,9.6-7.8,17.4-17.4,17.4s-17.4-7.8-17.4-17.4V338.8L290.8,338.8z"/>
<path class="st1" d="M125.5,443.1h17.4v34.8h-17.4V443.1z"/>
<path class="st1" d="M160.3,443.1h17.4v34.8h-17.4V443.1z"/>
<path class="st1" d="M195.1,443.1h17.4v34.8h-17.4V443.1z"/>
<path class="st2" d="M116.8,373.6h104.4v78.3H116.8V373.6z"/>
<path class="st3" d="M316.9,208.3c0.1-81.7-66-147.9-147.7-148c-81.7-0.1-147.9,66-148,147.7c-0.1,50.6,25.8,97.7,68.4,124.9
	c16.9,10.7,27.2,29.4,27.3,49.4h104.4c0-19.9,10.1-38.5,26.9-49.2C290.9,306,316.9,258.9,316.9,208.3L316.9,208.3z"/>
<path class="st4" d="M229.9,234.4h-17.4c0,24-19.5,43.5-43.5,43.5s-43.5-19.5-43.5-43.5h-17.4c0,30.2,22.3,55.9,52.2,60.2v87.7h17.4
	v-87.7C207.6,290.3,229.9,264.6,229.9,234.4z"/>
<path class="st5" d="M76.4,160.1l-15.4-8c27.5-52.7,88.9-77.9,145.5-59.7l-5.4,16.5C152.6,93.3,100,114.9,76.4,160.1L76.4,160.1z"/>
<path class="st5" d="M65.9,192.2l-17.2-2.7c1-6.4,2.5-12.6,4.4-18.7l16.5,5.3C68,181.4,66.7,186.8,65.9,192.2L65.9,192.2z"/>
<path class="st6" d="M116.8,417h104.4v17.4H116.8V417z"/>
<path class="st6" d="M116.8,382.3h104.4v17.4H116.8V382.3z"/>
<path class="st7" d="M464.7,156.1H343l-52.2,34.8v-34.8h-17.4c-14.4,0-26.1-11.7-26.1-26.1V25.7c0-14.4,11.7-26.1,26.1-26.1h191.3
	c14.4,0,26.1,11.7,26.1,26.1V130C490.8,144.4,479.2,156.1,464.7,156.1z"/>
<g>
	<path class="st8" d="M282.1,34.3h17.4v17.4h-17.4V34.3z"/>
	<path class="st8" d="M316.9,34.3H456v17.4H316.9V34.3z"/>
	<path class="st8" d="M282.1,69.1h174v17.4h-174V69.1z"/>
	<path class="st8" d="M282.1,103.9h174v17.4h-174V103.9z"/>
</g>
<path class="st9" d="M282.1,260.5H343l0,0v87l0,0h-60.9c-24,0-43.5-19.5-43.5-43.5C238.6,280,258.1,260.5,282.1,260.5z"/>
<path class="st0" d="M456,382.3l-130.5-34.8v-87L456,225.7V382.3z"/>
<path class="st9" d="M473.4,208.3L473.4,208.3c9.6,0,17.4,7.8,17.4,17.4v156.6c0,9.6-7.8,17.4-17.4,17.4l0,0
	c-9.6,0-17.4-7.8-17.4-17.4V225.7C456,216.1,463.8,208.3,473.4,208.3z"/>
</svg>
