<?xml version="1.0" encoding="utf-8"?>
<!-- Generator: Adobe Illustrator 23.0.3, SVG Export Plug-In . SVG Version: 6.00 Build 0)  -->
<svg version="1.1" id="Capa_1" xmlns="http://www.w3.org/2000/svg" xmlns:xlink="http://www.w3.org/1999/xlink" x="0px" y="0px"
	 viewBox="0 0 512 512" style="enable-background:new 0 0 512 512;" xml:space="preserve">
<style type="text/css">
	.st0{fill:#6FCCFF;}
	.st1{fill:#F9CD46;}
	.st2{fill:#DB9E00;}
	.st3{fill:#92796C;}
	.st4{fill:#58903A;}
	.st5{fill:#7A6054;}
	.st6{fill:#7CBA20;}
	.st7{fill:#98CA2D;}
	.st8{fill:#FFFFFF;}
</style>
<path class="st0" d="M512,263H0v135.8c0,36.8,29.8,66.7,66.7,66.7h378.7c36.8,0,66.7-29.8,66.7-66.7V263z"/>
<path class="st1" d="M58.4,366.1c0,42.7,88.5,37.1,197.6,37.1c109.1,0,197.6,5.6,197.6-37.1c0-39.7-76.7-107.4-175.3-116.5
	l-39.7-0.4c-13.5,1-26.7,3.1-39.3,6c-31.5,7.4-59.7,20.5-82.5,35.7h0C80.8,315.1,58.4,344.7,58.4,366.1z"/>
<g>
	<path class="st2" d="M110.6,366.1c0-21.5,22.4-51.1,58.4-75.2h0c22.8-15.2,51-28.3,82.5-35.7c9.9-2.3,20.1-4.1,30.5-5.3
		c-1.3-0.1-2.5-0.3-3.8-0.4l-39.7-0.4c-13.5,1-26.7,3.1-39.3,6c-31.5,7.4-59.7,20.5-82.5,35.7h0c-36.1,24.1-58.4,53.7-58.4,75.2
		c0,38.2,70.7,37.7,163.6,37.2C156.1,402.5,110.6,396.7,110.6,366.1z"/>
	<path class="st2" d="M308.2,403.2c-8.9,0-17.6,0-26.1,0.1c21.3,0.1,41.5,0.3,60.1,0C331.2,403.3,319.9,403.2,308.2,403.2z"/>
	<path class="st2" d="M116.9,291c75-5.5,118.2,21.8,118.2,21.8h45.1c-17.4-25.8-51.7-45-80.7-57.4
		C167.8,262.7,139.6,275.8,116.9,291z"/>
</g>
<path class="st3" d="M280.1,312.7H235c4.7-57.5,5.4-115.6,3.7-161.7v0c-0.4-9.7-0.8-18.9-1.4-27.5c-0.8-13.2-1.9-24.9-3.1-34.6
	l-12-20.4l41.3-11.4l1.1,41.1c0.8,4.7,1.5,9.5,2.3,14.5C279.2,197.9,280.1,312.7,280.1,312.7z"/>
<g>
	<path class="st4" d="M249,63.2c0,0-7.5,23.6,12.9,34.3s86.8,19.3,95.3,117.8c0,0,40.8-40.8,10.2-113.6l-53.9-39L249,63.2z"/>
	<path class="st4" d="M242.6,82.7c0,0-5.2,15.1-21.4,21.4c-28.5,11.1-38.8,60.8-38.8,94c0,0-36.6-27.2-11.3-108.9l34.2-24.4
		L242.6,82.7z"/>
</g>
<path class="st5" d="M266.8,112.7L266.8,112.7c0,0-21.4-4.1-28.1,38.3c-0.9-24.8-2.5-46.2-4.5-62.1l-12-20.4l41.3-11.4l1.1,41.1
	C265.4,102.9,266.1,107.8,266.8,112.7z"/>
<g>
	<path class="st6" d="M251,71.1c-1.2-4.7,1.2-9.6,5.6-11.6c18-7.9,65-24.6,108.1-6c54.6,23.6,49.3,83.5,49.3,83.5
		s-44.9-60.1-140.9-50.7C262.9,87.4,253.5,81,251,71.1L251,71.1z"/>
	<path class="st6" d="M250.6,71.1c1.2-4.7-1.2-9.6-5.6-11.6c-18-7.9-65-24.6-108.1-6c-54.6,23.6-49.3,83.5-49.3,83.5
		s44.9-60.1,140.9-50.7C238.7,87.4,248.1,81,250.6,71.1L250.6,71.1z"/>
</g>
<g>
	<path class="st7" d="M249,68.4c0,0,1.1-52.5,65.3-66.4s80.3,50.3,80.3,50.3S342.2,18,249,68.4z"/>
	<path class="st7" d="M252.6,68.4c0,0-1.1-52.5-65.3-66.4s-80.3,50.3-80.3,50.3S159.4,18,252.6,68.4z"/>
</g>
<g>
	<path class="st8" d="M459.8,442.2h-30.3c-4.3,0-7.8-3.5-7.8-7.8s3.5-7.8,7.8-7.8h30.3c4.3,0,7.8,3.5,7.8,7.8
		S464.1,442.2,459.8,442.2z"/>
	<path class="st8" d="M489,293.8h-30.3c-4.3,0-7.8-3.5-7.8-7.8s3.5-7.8,7.8-7.8H489c4.3,0,7.8,3.5,7.8,7.8S493.3,293.8,489,293.8z"
		/>
	<path class="st8" d="M54.3,313.7H24c-4.3,0-7.8-3.5-7.8-7.8s3.5-7.8,7.8-7.8h30.3c4.3,0,7.8,3.5,7.8,7.8S58.7,313.7,54.3,313.7z"/>
	<path class="st8" d="M186,455.8h-30.3c-4.3,0-7.8-3.5-7.8-7.8s3.5-7.8,7.8-7.8H186c4.3,0,7.8,3.5,7.8,7.8S190.3,455.8,186,455.8z"
		/>
	<path class="st8" d="M244.5,435.9h-30.3c-4.3,0-7.8-3.5-7.8-7.8s3.5-7.8,7.8-7.8h30.3c4.3,0,7.8,3.5,7.8,7.8
		S248.8,435.9,244.5,435.9z"/>
</g>
<path class="st5" d="M248.1,312.7H235c4.7-57.5,5.4-115.6,3.7-161.7v0c-0.4-9.7-0.8-18.9-1.4-27.5l10.8-8.6
	C248.2,114.9,253.9,263.6,248.1,312.7z"/>
</svg>
