<?xml version="1.0" encoding="utf-8"?>
<!-- Generator: Adobe Illustrator 23.0.3, SVG Export Plug-In . SVG Version: 6.00 Build 0)  -->
<svg version="1.1" id="Capa_1" xmlns="http://www.w3.org/2000/svg" xmlns:xlink="http://www.w3.org/1999/xlink" x="0px" y="0px"
	 viewBox="0 0 512 512" style="enable-background:new 0 0 512 512;" xml:space="preserve">
<style type="text/css">
	.st0{fill:#49A8E2;}
	.st1{fill:#209AC9;}
	.st2{fill:#AAE8F2;}
	.st3{fill:#91DDE5;}
	.st4{fill:#DFF3F4;}
	.st5{fill:#FFB103;}
	.st6{fill:#E0930A;}
	.st7{fill:#FF9203;}
	.st8{fill:#F47A0B;}
	.st9{fill:#93BA36;}
	.st10{fill:#8AAA26;}
	.st11{fill:#AA5D24;}
</style>
<g>
	<path class="st0" d="M220.1,446.3l4.6,12.4c3.4,8.6,11.8,14.3,21,14.3h19.2c10.1,0,19.2-6.2,22.9-15.6l4.1-11.1
		C276.1,446.3,236,446.3,220.1,446.3z"/>
	<path class="st1" d="M247.9,458.7l-4.6-12.4c-8.6,0-14.7,0-23.2,0l4.6,12.4c3.4,8.6,11.8,14.3,21,14.3c19.9,0,19.2,0.1,21.2-0.1
		C258.5,472.2,251.1,466.7,247.9,458.7z"/>
	<path class="st2" d="M201.1,413.7c0,6.3,0,12.5,0,18.8c0,8.1,6.6,14.8,14.8,14.8h80.2c8.1,0,14.8-6.6,14.8-14.8v-1.2v-17.6
		C299.8,413.7,216.8,413.7,201.1,413.7z"/>
	<path class="st3" d="M224.4,432.4c0-6.3,0-12.5,0-18.8c-8,0-15.2,0-23.2,0c0,6.3,0,12.5,0,18.8c0,8.1,6.6,14.8,14.8,14.8h23.2
		C231,447.2,224.4,440.6,224.4,432.4z"/>
	<path class="st4" d="M188.3,383.8c0,5.4,0,9.7,0,17.9c0,8.1,6.6,14.8,14.8,14.8h105.8c8.1,0,14.8-6.6,14.8-14.8c0-5.1,0-9.7,0-17.9
		C309.4,383.8,205,383.8,188.3,383.8z"/>
	<path class="st2" d="M211.5,401.7c0-5.1,0-9.7,0-17.9c-8,0-15.2,0-23.2,0c0,5.4,0,9.7,0,17.9c0,8.1,6.6,14.8,14.8,14.8h23.2
		C218.2,416.5,211.5,409.8,211.5,401.7z"/>
	<path class="st5" d="M407.5,208.2c0-83.1-66.9-150.6-149.8-151.5c-83.6-0.9-153.2,67.9-153.2,151.5c0,52.6,26.8,98.8,67.4,126
		c10.2,6.8,16.4,18.2,16.4,30.4v21h135.3v-22.6c0-11.4,5.9-22,15.4-28.2C380.3,307.8,407.5,261.2,407.5,208.2z"/>
	<path class="st6" d="M211.5,385.7v-28.4c0-12.3-6.2-23.6-16.4-30.4c-40.6-27.2-67.4-73.5-67.4-126c0-62.9,39.4-117.4,94.6-140.2
		c-67,15.5-117.8,76.2-117.8,147.6c0,52.6,26.8,98.8,67.4,126c10.2,6.8,16.4,18.2,16.4,30.4v21L211.5,385.7L211.5,385.7L211.5,385.7
		z"/>
	<rect x="188.3" y="362.1" class="st7" width="135.3" height="23.6"/>
	<path class="st8" d="M188.3,362.1c0,4.1,0,14.4,0,23.6h23.2v-23.6H188.3z"/>
	<path class="st9" d="M359.5,154c-1.5-6.6-6.7-11-13.5-11.4c-58.8-3.4-112,59.7-98.8,117.1c1.5,6.6,6.7,11,13.5,11.4
		C319.4,274.5,372.7,211.4,359.5,154z"/>
	<path class="st10" d="M355.7,174.6c2,0.1,3.9,0.6,5.6,1.4c0.4-7.5-0.2-14.9-1.9-21.9c-1.5-6.6-6.7-11-13.5-11.4
		c-26.5-1.5-55.6,11-76.4,35.8s-28.4,55.5-22.4,81.4c1.1,4.6,3.9,8.1,7.8,10C257.6,217.4,305.9,171.7,355.7,174.6z"/>
	<g>
		<path class="st5" d="M452.8,215.2H432c-3.8,0-7-3.1-7-7s3.1-7,7-7h20.8c3.8,0,7,3.1,7,7C459.7,212.1,456.6,215.2,452.8,215.2z"/>
		<path class="st5" d="M80,215.2H59.2c-3.8,0-7-3.1-7-7s3.1-7,7-7H80c3.8,0,7,3.1,7,7C87,212.1,83.9,215.2,80,215.2z"/>
		<path class="st5" d="M408.4,127.2c-2.4,0-4.7-1.2-6-3.5c-1.9-3.3-0.8-7.6,2.5-9.5l18-10.4c3.3-1.9,7.6-0.8,9.5,2.5
			c1.9,3.3,0.8,7.6-2.5,9.5l-18,10.4C410.8,126.9,409.6,127.2,408.4,127.2z"/>
		<path class="st5" d="M85.6,313.6c-2.4,0-4.7-1.2-6-3.5c-1.9-3.3-0.8-7.6,2.5-9.5l18-10.4c3.3-1.9,7.6-0.8,9.5,2.5
			c1.9,3.3,0.8,7.6-2.5,9.5l-18,10.4C88,313.3,86.8,313.6,85.6,313.6z"/>
		<path class="st5" d="M340.5,61.9c-3.3-1.9-4.5-6.2-2.5-9.5l10.4-18c1.9-3.3,6.2-4.5,9.5-2.5c3.3,1.9,4.5,6.2,2.5,9.5l-10.4,18
			C348.1,62.7,343.8,63.8,340.5,61.9z"/>
		<path class="st5" d="M154.1,384.7c-3.3-1.9-4.5-6.2-2.5-9.5l10.4-18c1.9-3.3,6.2-4.5,9.5-2.5c3.3,1.9,4.5,6.2,2.5,9.5l-10.4,18
			C161.7,385.4,157.5,386.6,154.1,384.7z"/>
		<path class="st5" d="M256,39.2c-3.8,0-7-3.1-7-7V11.5c0-3.8,3.1-7,7-7s7,3.1,7,7v20.8C263,36.1,259.8,39.2,256,39.2z"/>
		<path class="st5" d="M162,59.3l-10.4-18c-1.9-3.3-0.8-7.6,2.5-9.5c3.3-1.9,7.6-0.8,9.5,2.5l10.4,18c1.9,3.3,0.8,7.6-2.5,9.5
			C168.2,63.8,163.9,62.7,162,59.3z"/>
		<path class="st5" d="M348.3,382.1l-10.4-18c-1.9-3.3-0.8-7.6,2.5-9.5c3.3-1.9,7.6-0.8,9.5,2.5l10.4,18c1.9,3.3,0.8,7.6-2.5,9.5
			C354.5,386.6,350.3,385.5,348.3,382.1z"/>
		<path class="st5" d="M103.6,127.2c-1.2,0-2.4-0.3-3.5-0.9l-18-10.4c-3.3-1.9-4.5-6.2-2.5-9.5c1.9-3.3,6.2-4.5,9.5-2.5l18,10.4
			c3.3,1.9,4.5,6.2,2.5,9.5C108.4,126,106,127.2,103.6,127.2z"/>
		<path class="st5" d="M426.4,313.6c-1.2,0-2.4-0.3-3.5-0.9l-18-10.4c-3.3-1.9-4.5-6.2-2.5-9.5c1.9-3.3,6.2-4.5,9.5-2.5l18,10.4
			c3.3,1.9,4.5,6.2,2.5,9.5C431.1,312.3,428.8,313.6,426.4,313.6z"/>
	</g>
	<path class="st9" d="M149.6,219.5c0.3-4.3,3.1-7.5,7.3-8.4c36.5-7.8,75.9,26.4,73.2,63.6c-0.3,4.3-3.1,7.5-7.3,8.4
		c-16.4,3.5-35.8-1.5-51.3-14.9C156.1,254.8,148.4,236.3,149.6,219.5z"/>
	<path class="st10" d="M168.4,211.2c0-0.4,0.1-0.8,0.2-1.1c-4-0.1-7.9,0.3-11.6,1.1c-4.2,0.9-7,4.2-7.3,8.4
		c-2.7,37.2,36.8,71.5,73.2,63.6c3.8-0.8,6.5-3.6,7.2-7.3C196.2,275.2,166,243.6,168.4,211.2z"/>
	<path class="st11" d="M334.6,172.1c-1.9-3.3-6.2-4.5-9.5-2.5c-10.5,6.1-19.9,13.1-28.1,20.4c-0.4-3-0.9-4.9-1-5.1
		c-1-3.7-4.8-5.9-8.5-4.8c-3.7,1-5.9,4.8-4.9,8.5c0,0.1,2.1,8,0.2,15.6c-21.2,23.7-35.8,52.2-44.6,82c-9.8-19.1-27.1-42.9-56.3-57.1
		c-3.5-1.7-7.6-0.2-9.3,3.2c-1.7,3.5-0.2,7.6,3.2,9.3c42.4,20.6,55.4,64.1,57.1,66.7c-1.4,7.6-1.8,12.3-1.9,12.7
		c-0.3,4,2.8,7.6,6.9,7.6c3.6,0,6.6-2.7,6.9-6.4c0.1-0.6,4-42.6,29.7-84c9.7-3,21.2-2.5,21.3-2.5c3.8,0.2,7.1-2.7,7.3-6.6
		c0.2-3.8-2.7-7.1-6.6-7.3c-0.3,0-4.8-0.2-10.8,0.2c11.8-15,26.9-29.2,46.2-40.5C335.4,179.6,336.5,175.4,334.6,172.1z"/>
</g>
</svg>
