<?xml version="1.0" encoding="utf-8"?>
<!-- Generator: Adobe Illustrator 23.0.3, SVG Export Plug-In . SVG Version: 6.00 Build 0)  -->
<svg version="1.1" id="Capa_1" xmlns="http://www.w3.org/2000/svg" xmlns:xlink="http://www.w3.org/1999/xlink" x="0px" y="0px"
	 viewBox="0 0 512 512" style="enable-background:new 0 0 512 512;" xml:space="preserve">
<style type="text/css">
	.st0{fill:#FFB103;}
	.st1{fill:#59C36A;}
	.st2{fill:#49A8E2;}
</style>
<path id="XMLID_790_" class="st0" d="M236,404.4c5.5-1.7,12.1-2.9,20-2.9c8,0,14.5,1.1,20.1,2.9v-40.1c23.3,8.3,40.1,30.5,40.1,56.6
	c6.5-0.4,9.6-2.5,15.1-6.2c5.7-3.8,12.8-8.6,23.4-11.2c-2.8-15.8-9.3-30.3-18.5-42.6c27.8,0,51.3,19,58.1,44.6
	c7.2,2.7,12.6,6.3,17,9.2c6.2,4.2,9.3,6.3,17.6,6.3c3.1,0,5.4-0.3,7.5-0.9c-0.5-54.9-45.2-99.3-100.2-99.3H276v-71.6
	c-6.5,0.9-13.2,1.4-20,1.4c-6.8,0-13.5-0.5-20-1.4V404.4z"/>
<path id="XMLID_791_" class="st0" d="M100.7,414.6c4.4-3,9.8-6.6,17-9.3c6.9-25.6,30.3-44.6,58.1-44.6
	c-9.2,12.3-15.7,26.8-18.5,42.6c10.6,2.6,17.8,7.4,23.4,11.2c5.5,3.7,8.6,5.8,15.1,6.2c0-26.1,16.8-48.3,40.1-56.6v-43.5h-60.1
	c-55,0-99.7,44.5-100.2,99.3c2.1,0.6,4.4,0.9,7.5,0.9C91.4,420.9,94.5,418.8,100.7,414.6z"/>
<path id="XMLID_794_" class="st1" d="M256,250.5c6.8,0,13.5-0.5,20-1.4c68.5-9.7,121.1-68.6,121.1-139.7h-31.8
	C365.4,49,316.4,0,256,0V250.5z"/>
<path id="XMLID_797_" class="st1" d="M256,0c-60.4,0-109.4,49-109.4,109.4h-31.8c0,71.2,52.6,130,121.1,139.7
	c6.5,0.9,13.2,1.4,20,1.4V0z"/>
<path id="XMLID_798_" class="st2" d="M446.5,414.6c-3.9,2.6-6.6,4.4-10.1,5.4c-2.1,0.6-4.4,0.9-7.5,0.9c-8.3,0-11.4-2.1-17.6-6.3
	c-4.4-3-9.8-6.6-17-9.2c-6.1-2.3-13.6-3.9-23-3.9c-6.3,0-11.8,0.7-16.6,1.9c-10.6,2.6-17.8,7.4-23.4,11.2c-5.5,3.7-8.6,5.8-15.1,6.2
	c-0.8,0-1.6,0.1-2.5,0.1c-8.3,0-11.4-2.1-17.6-6.3c-5-3.4-11.2-7.5-20-10.3c-5.5-1.7-12.1-2.9-20.1-2.9v40.1
	c8.3,0,11.4,2.1,17.6,6.3c8.2,5.5,19.5,13.1,40,13.1c20.5,0,31.8-7.6,40-13.1c6.2-4.2,9.3-6.3,17.6-6.3c8.3,0,11.4,2.1,17.6,6.3
	c8.2,5.5,19.5,13.1,40,13.1c20.5,0,31.8-7.6,40-13.1c6.2-4.2,9.3-6.3,17.6-6.3v-40.1C466,401.5,454.7,409.1,446.5,414.6z"/>
<path id="XMLID_799_" class="st2" d="M256,401.5c-8,0-14.5,1.1-20,2.9c-8.7,2.7-14.9,6.9-20,10.3c-6.2,4.2-9.3,6.3-17.6,6.3
	c-0.9,0-1.7,0-2.5-0.1c-6.5-0.4-9.6-2.5-15.1-6.2c-5.7-3.8-12.8-8.6-23.4-11.2c-4.8-1.2-10.2-1.9-16.6-1.9c-9.4,0-16.9,1.6-23,3.9
	c-7.2,2.7-12.6,6.3-17,9.3c-6.2,4.2-9.3,6.3-17.6,6.3c-3.1,0-5.4-0.3-7.5-0.9c-3.5-1-6.2-2.8-10.1-5.4c-8.2-5.5-19.5-13.1-40-13.1
	v40.1c8.3,0,11.4,2.1,17.6,6.3c8.2,5.5,19.5,13.1,40,13.1c20.5,0,31.8-7.6,40-13.1c6.2-4.2,9.3-6.3,17.6-6.3
	c8.3,0,11.4,2.1,17.6,6.3c8.2,5.5,19.5,13.1,40,13.1c20.5,0,31.8-7.6,40-13.1c6.2-4.2,9.3-6.3,17.6-6.3L256,401.5L256,401.5z"/>
</svg>
