<?xml version="1.0" encoding="utf-8"?>
<!-- Generator: Adobe Illustrator 23.0.3, SVG Export Plug-In . SVG Version: 6.00 Build 0)  -->
<svg version="1.1" id="Capa_1" xmlns="http://www.w3.org/2000/svg" xmlns:xlink="http://www.w3.org/1999/xlink" x="0px" y="0px"
	 viewBox="0 0 512 512" style="enable-background:new 0 0 512 512;" xml:space="preserve">
<style type="text/css">
	.st0{fill:#4C8056;}
	.st1{fill:#71C285;}
	.st2{fill:#CB8252;}
	.st3{fill:#59C36A;}
	.st4{fill:#F9CD46;}
	.st5{fill:#FFFFFF;}
	.st6{fill:#805333;}
</style>
<g>
	<path class="st0" d="M313.3,46.6c-28.6-12.3-71.5-7.4-71.5-7.4s12.9,42,30,62.1c8.4,9.2,21.2,13.1,33.3,10.1L313.3,46.6z"/>
	<path class="st1" d="M432.6,145.3c-26.6,34.9-79.5,31.8-109.5,1.1c-29.9-30.8-32.3-84.4,1-112.5C379.3-12.8,494.4,2.3,494.4,2.3
		S467.8,98.9,432.6,145.3z"/>
	<path class="st0" d="M263.2,239.9c-0.3,0-0.6,0-0.9,0c-4.5-0.5-7.8-4.5-7.3-9C265.7,130.6,371.6,84.2,376.1,82.3
		c4.2-1.8,9,0.2,10.8,4.3s-0.2,9-4.3,10.8c-1,0.4-101.6,44.6-111.2,135.1C270.9,236.7,267.4,239.9,263.2,239.9z"/>
	<path class="st2" d="M116.2,287.2c-0.1-14.1,7.1-27.3,19.1-34.8c11.9-7.5,26.9-8.4,39.6-2.2c15.2-21.2,44.3-26.8,66.3-12.8
		c4.2-11.1,15.8-17.6,27.5-15.5c11.7,2.2,20.2,12.4,20.2,24.3c0,0.4-0.1,0.8-0.1,1.3c27.2-5.6,54.7,7.7,67.3,32.3
		c9.7-2.1,19.8,0.4,27.5,6.6c7.7,6.2,12.2,15.6,12.2,25.6c0,0.1,0,0.3,0,0.4c14.2,2,24.7,14.1,24.7,28.4l0,0
		c-7.6,22.9-26.8,40.1-50.5,45.2l-95.7,20.6c-8.4,1.8-17.1,2-25.7,0.6l-62-10.4c-26.5-4.4-48-24.1-54.8-50.1L116.2,287.2z"/>
	<path class="st3" d="M91.6,299.5v148c-0.1,15.9-12.9,28.7-28.8,28.8H46.3c-15.9,0-28.8-12.9-28.8-28.8v-148
		c0-15.9,12.9-28.8,28.8-28.8h16.4c11.5,0,21.9,6.9,26.5,17.5C90.8,291.8,91.6,295.7,91.6,299.5z"/>
	<path class="st4" d="M483.6,365.9l-154.1,93.8c-9,5.5-19.4,8.4-29.9,8.4H83.3l-0.2-0.2c5.4-5.4,8.5-12.7,8.5-20.3v-148
		c0-3.9-0.8-7.7-2.3-11.3l2.3-1.1h23c17,0,33.6,5.8,46.9,16.4c13.3,10.6,29.8,16.4,46.9,16.4h43c14.5,0,27.9,7.6,35.3,20l0.7,1.2
		c7,11.7,5.1,26.7-4.5,36.3h19.3c3.6,0,7.1-0.6,10.4-1.7l152.2-50.7c9.2-3,19.3,0.1,25.2,7.9v0.1c3.8,5.1,5.3,11.5,4.1,17.8
		C492.8,357.2,489,362.6,483.6,365.9z"/>
	<path class="st5" d="M157.3,402.3c-3.6,0-6.8-2.4-7.9-5.8c-1.1-3.5,0.3-7.2,3.3-9.2l6-4c13.5-9,29.4-13.8,45.6-13.8h53.8
		c4.5,0,8.2,3.7,8.2,8.2c0,4.5-3.7,8.2-8.2,8.2h-53.8c-13,0-25.7,3.9-36.5,11l-6,4C160.6,401.8,159,402.3,157.3,402.3z"/>
	<g>
		<path class="st6" d="M198.9,287.2c-2.5,0-4.8-1.1-6.4-3c-1.6-1.9-2.2-4.4-1.7-6.8c2.8-13.4,14.5-23,28.2-23c6.2,0,12.3,2,17.3,5.8
			c3.6,2.7,4.3,7.9,1.6,11.5c-2.7,3.6-7.9,4.4-11.5,1.7c-2.1-1.6-4.7-2.5-7.4-2.5c-5.9,0-10.9,4.1-12.1,9.9
			C206.1,284.4,202.8,287.2,198.9,287.2z"/>
		<path class="st6" d="M320.6,304.8c-4.1,0-7.6-3-8.1-7.1c-0.4-2.6-1.6-5.1-3.5-7c-4.1-4.1-10.6-4.8-15.5-1.6
			c-2.4,1.6-5.6,1.8-8.2,0.5c-2.6-1.3-4.4-3.9-4.5-6.9c-0.2-2.9,1.2-5.7,3.7-7.4c8.2-5.4,18.7-6.3,27.7-2.2c9,4,15.3,12.4,16.7,22.2
			c0.6,4.5-2.5,8.7-7,9.3C321.3,304.8,321,304.8,320.6,304.8z"/>
	</g>
</g>
</svg>
