<?xml version="1.0" encoding="utf-8"?>
<!-- Generator: Adobe Illustrator 23.0.3, SVG Export Plug-In . SVG Version: 6.00 Build 0)  -->
<svg version="1.1" id="Capa_1" xmlns="http://www.w3.org/2000/svg" xmlns:xlink="http://www.w3.org/1999/xlink" x="0px" y="0px"
	 viewBox="0 0 512 512" style="enable-background:new 0 0 512 512;" xml:space="preserve">
<style type="text/css">
	.st0{fill:#97DE3D;}
	.st1{fill:#596C76;}
	.st2{fill:#E6FFFF;}
	.st3{fill:#59C36A;}
</style>
<g>
	<g>
		<g>
			<path class="st0" d="M368.8,481.2H143.2c-7.2,0-13.3-5.5-14-12.7L101,184.7c-0.4-4,0.9-7.9,3.6-10.9c2.7-3,6.5-4.6,10.4-4.6H397
				c4,0,7.8,1.7,10.4,4.6c2.7,3,4,6.9,3.6,10.9l-28.2,283.8C382.1,475.7,376,481.2,368.8,481.2z"/>
		</g>
	</g>
	<g>
		<path class="st0" d="M397,141H115c-4.3,0-8.4-2-11.1-5.4s-3.6-7.9-2.6-12.1l28.2-112.8C131.1,4.4,136.8,0,143.2,0h225.6
			c6.5,0,12.1,4.4,13.7,10.7l28.2,112.8c1.1,4.2,0.1,8.7-2.6,12.1C405.4,139,401.3,141,397,141z"/>
	</g>
	<g>
		<path class="st1" d="M312.4,141H199.6c-7.8,0-14.1-6.3-14.1-14.1V70.5c0-7.8,6.3-14.1,14.1-14.1h112.8c7.8,0,14.1,6.3,14.1,14.1
			v56.4C326.5,134.7,320.2,141,312.4,141z"/>
	</g>
	<g>
		<path class="st2" d="M228.5,379.7h-45.8c-5,0-9.7-2.7-12.2-7c-2.5-4.4-2.5-9.7,0-14.1l22.9-39.6c3.9-6.7,12.5-9.1,19.3-5.2
			c6.7,3.9,9.1,12.5,5.2,19.3l-10.7,18.5h21.4c7.8,0,14.1,6.3,14.1,14.1C242.6,373.4,236.3,379.7,228.5,379.7L228.5,379.7z"/>
	</g>
	<g>
		<path class="st2" d="M329.3,379.7h-45.8c-7.8,0-14.1-6.3-14.1-14.1c0-7.8,6.3-14.1,14.1-14.1h21.4L294.2,333
			c-3.9-6.7-1.6-15.4,5.2-19.3c6.7-3.9,15.4-1.6,19.3,5.2l22.9,39.6c2.5,4.4,2.5,9.7,0,14.1C338.9,377,334.3,379.7,329.3,379.7
			L329.3,379.7z"/>
	</g>
	<g>
		<path class="st2" d="M278.9,292.5c-4.9,0-9.6-2.5-12.2-7.1L256,266.9l-10.7,18.5c-3.9,6.7-12.5,9.1-19.3,5.2
			c-6.7-3.9-9.1-12.5-5.2-19.3l22.9-39.6c2.5-4.4,7.2-7,12.2-7s9.7,2.7,12.2,7l22.9,39.6c3.9,6.7,1.6,15.4-5.2,19.3
			C283.7,291.9,281.3,292.5,278.9,292.5L278.9,292.5z"/>
	</g>
	<g>
		<path class="st3" d="M425.2,197.4H86.8c-7.8,0-14.1-6.3-14.1-14.1v-56.4c0-7.8,6.3-14.1,14.1-14.1h338.3c7.8,0,14.1,6.3,14.1,14.1
			v56.4C439.3,191,433,197.4,425.2,197.4z"/>
	</g>
</g>
</svg>
